<?xml version="1.0" encoding="utf-8"?>
<!-- Generator: Adobe Illustrator 18.0.0, SVG Export Plug-In . SVG Version: 6.00 Build 0)  -->
<!DOCTYPE svg PUBLIC "-//W3C//DTD SVG 1.1//EN" "http://www.w3.org/Graphics/SVG/1.1/DTD/svg11.dtd">
<svg version="1.1" id="Layer_1" xmlns:sketch="http://www.bohemiancoding.com/sketch/ns"
	 xmlns="http://www.w3.org/2000/svg" xmlns:xlink="http://www.w3.org/1999/xlink" x="0px" y="0px" viewBox="0 0 1440 655"
	 enable-background="new 0 0 1440 655" xml:space="preserve">
<title>graph</title>
<desc>Created with Sketch Beta.</desc>
<g id="Page-1" sketch:type="MSPage">
	<g id="WINNER" transform="translate(0.000000, -177.000000)" sketch:type="MSArtboardGroup">
		<g id="header" transform="translate(-36.000000, -166.000000)" sketch:type="MSLayerGroup">
			<g id="backgroun" transform="translate(9.000000, 157.000000)" sketch:type="MSShapeGroup">
				<g id="graph" transform="translate(-83.000000, 3.000000)">
					<g transform="translate(110.000000, 184.000000)">
						
							<linearGradient id="Path-539_2_" gradientUnits="userSpaceOnUse" x1="125.0294" y1="747.4143" x2="124.1559" y2="746.5924" gradientTransform="matrix(1440 0 0 -654 -178436 489027.0625)">
							<stop  offset="0" style="stop-color:#4CC7FF;stop-opacity:0.15"/>
							<stop  offset="1" style="stop-color:#2595FF;stop-opacity:0.15"/>
						</linearGradient>
						<path id="Path-539" fill="url(#Path-539_2_)" d="M0,583c0,0,96.8-113.6,184.9-109.1s150.7,71.3,216.3,71.3
							s136.3-113.4,210.9-113.4s151.6,103.6,207.5,84.3s144.7-145.7,167.1-188.2s123.7-167.1,253.2-194.8S1422.3,49.4,1440,0v654H0
							V583z"/>
						<path id="Path-539_1_" fill="none" stroke="#2595FF" stroke-width="3" d="M0,583c0,0,96.8-113.6,184.9-109.1
							s150.7,71.3,216.3,71.3s136.3-113.4,210.9-113.4s151.6,103.6,207.5,84.3s144.7-145.7,167.1-188.2s123.7-167.1,253.2-194.8
							S1422.3,50,1440,0"/>
						<g id="graph-dots" transform="translate(167.000000, 116.000000)">
							<circle id="Oval-60" fill="#2A689A" stroke="#2595FF" stroke-width="2" cx="8" cy="357" r="8"/>
							<circle id="Oval-60_1_" fill="#2E6F9D" stroke="#2595FF" stroke-width="2" cx="237" cy="428" r="8"/>
							<circle id="Oval-60_2_" fill="#3275A2" stroke="#2595FF" stroke-width="2" cx="440" cy="315" r="8"/>
							<circle id="Oval-60_3_" fill="#32749A" stroke="#2595FF" stroke-width="2" cx="639" cy="403" r="8"/>
							<circle id="Oval-60_4_" fill="#347FAA" stroke="#2595FF" stroke-width="2" cx="831" cy="193" r="8"/>
							<circle id="Oval-60_5_" fill="#34789C" stroke="#2595FF" stroke-width="2" cx="1110" cy="8" r="8"/>
						</g>
					</g>
				</g>
			</g>
		</g>
	</g>
</g>
</svg>
