<?xml version="1.0" encoding="utf-8"?>
<!-- Generator: Adobe Illustrator 18.0.0, SVG Export Plug-In . SVG Version: 6.00 Build 0)  -->
<!DOCTYPE svg PUBLIC "-//W3C//DTD SVG 1.1//EN" "http://www.w3.org/Graphics/SVG/1.1/DTD/svg11.dtd">
<svg version="1.1" id="Layer_1" xmlns="http://www.w3.org/2000/svg" xmlns:xlink="http://www.w3.org/1999/xlink" x="0px" y="0px"
	 viewBox="0 0 446 168" enable-background="new 0 0 446 168" xml:space="preserve">
<g>
	<path fill="#FFFFFF" d="M96.3,4.3H12.9c-3,0-5.4,2.4-5.4,5.4c0,3,2.4,5.4,5.4,5.4h36.3v106.8c0,3,2.4,5.4,5.4,5.4
		c3,0,5.4-2.4,5.4-5.4V15h36.3c3,0,5.4-2.4,5.4-5.4C101.7,6.7,99.2,4.3,96.3,4.3z"/>
	<path fill="#FFFFFF" d="M286.1,4.3h-52.4c-0.2,0-0.5,0-0.7,0c-0.2,0-0.4,0-0.7,0c-3,0-5.4,2.4-5.4,5.4v148c0,3,2.4,5.4,5.4,5.4
		c3,0,5.4-2.4,5.4-5.4V15h48.4c15.3,0,27.8,12.5,27.8,27.8c0,15.3-12.5,27.8-27.8,27.8h-35c-3,0-5.4,2.4-5.4,5.4
		c0,3,2.4,5.4,5.4,5.4h35c21.3,0,38.5-17.3,38.5-38.5C324.6,21.6,307.4,4.3,286.1,4.3z"/>
	<path fill="#FFFFFF" d="M401.8,4.3h-52.4c-0.2,0-0.5,0-0.7,0c-0.2,0-0.4,0-0.7,0c-3,0-5.4,2.4-5.4,5.4v112.2c0,3,2.4,5.4,5.4,5.4
		c3,0,5.4-2.4,5.4-5.4V15h48.4c15.3,0,27.8,12.5,27.8,27.8c0,15.3-12.5,27.8-27.8,27.8h-35c-3,0-5.4,2.4-5.4,5.4
		c0,3,2.4,5.4,5.4,5.4h35c21.3,0,38.5-17.3,38.5-38.5C440.4,21.6,423.1,4.3,401.8,4.3z"/>
	<path fill="#FFFFFF" d="M160.3,4.3h-1c-25.2,0-45.9,19.3-48.1,43.9c-0.1,0.5-0.2,1-0.2,1.5v107.9c0,3,2.4,5.4,5.4,5.4
		c3,0,5.4-2.4,5.4-5.4v-105c0-20.7,16.9-37.6,37.6-37.6h1c20.7,0,37.6,16.9,37.6,37.6v18h-62.8c-3,0-5.4,2.4-5.4,5.4
		c0,3,2.4,5.4,5.4,5.4h62.8v40.5c0,3,2.4,5.4,5.4,5.4c3,0,5.4-2.4,5.4-5.4V49.7c0-0.5-0.1-1-0.2-1.5C206.2,23.6,185.4,4.3,160.3,4.3
		z"/>
</g>
</svg>
